<mxfile host="app.diagrams.net" agent="Mozilla/5.0 (Windows NT 10.0; Win64; x64) AppleWebKit/537.36 (KHTML, like Gecko) Chrome/122.0.0.0 Safari/537.36" version="24.7.12">
  <diagram name="Trang-1" id="IibGDmV4W4xq0EV93Vsy">
    <mxGraphModel dx="1050" dy="557" grid="1" gridSize="10" guides="1" tooltips="1" connect="1" arrows="1" fold="1" page="1" pageScale="1" pageWidth="827" pageHeight="1169" math="0" shadow="0">
      <root>
        <mxCell id="0" />
        <mxCell id="1" parent="0" />
        <mxCell id="RKl3Yg5YxASx0wYNZK-S-1" value="Người dùng" style="shape=umlActor;verticalLabelPosition=bottom;verticalAlign=top;html=1;outlineConnect=0;" parent="1" vertex="1">
          <mxGeometry x="30" y="310" width="30" height="60" as="geometry" />
        </mxCell>
        <mxCell id="RKl3Yg5YxASx0wYNZK-S-2" value="" style="endArrow=classic;html=1;rounded=0;exitX=1;exitY=0.3333333333333333;exitDx=0;exitDy=0;exitPerimeter=0;entryX=0;entryY=0.5;entryDx=0;entryDy=0;" parent="1" source="RKl3Yg5YxASx0wYNZK-S-1" target="RKl3Yg5YxASx0wYNZK-S-5" edge="1">
          <mxGeometry width="50" height="50" relative="1" as="geometry">
            <mxPoint x="140" y="270" as="sourcePoint" />
            <mxPoint x="120" y="230" as="targetPoint" />
          </mxGeometry>
        </mxCell>
        <mxCell id="RKl3Yg5YxASx0wYNZK-S-5" value="Nhập số điện thoại" style="ellipse;whiteSpace=wrap;html=1;" parent="1" vertex="1">
          <mxGeometry x="120" y="210" width="120" height="30" as="geometry" />
        </mxCell>
        <mxCell id="RKl3Yg5YxASx0wYNZK-S-7" value="Nhập mật khẩu" style="ellipse;whiteSpace=wrap;html=1;" parent="1" vertex="1">
          <mxGeometry x="120" y="260" width="120" height="30" as="geometry" />
        </mxCell>
        <mxCell id="RKl3Yg5YxASx0wYNZK-S-11" value="Đăng nhập thành công" style="ellipse;whiteSpace=wrap;html=1;" parent="1" vertex="1">
          <mxGeometry x="430" y="300" width="130" height="50" as="geometry" />
        </mxCell>
        <mxCell id="RKl3Yg5YxASx0wYNZK-S-12" value="extended" style="endArrow=open;endSize=12;dashed=1;html=1;rounded=0;exitX=0.394;exitY=-0.075;exitDx=0;exitDy=0;exitPerimeter=0;entryX=0.757;entryY=0.933;entryDx=0;entryDy=0;entryPerimeter=0;" parent="1" source="RKl3Yg5YxASx0wYNZK-S-11" target="5k28YJLgIWIQSBCrcyXX-5" edge="1">
          <mxGeometry width="160" relative="1" as="geometry">
            <mxPoint x="-30" y="300" as="sourcePoint" />
            <mxPoint x="390" y="280" as="targetPoint" />
          </mxGeometry>
        </mxCell>
        <mxCell id="5k28YJLgIWIQSBCrcyXX-2" value="" style="endArrow=classic;html=1;rounded=0;exitX=1;exitY=0.3333333333333333;exitDx=0;exitDy=0;exitPerimeter=0;entryX=0;entryY=0.5;entryDx=0;entryDy=0;" parent="1" source="RKl3Yg5YxASx0wYNZK-S-1" target="RKl3Yg5YxASx0wYNZK-S-7" edge="1">
          <mxGeometry width="50" height="50" relative="1" as="geometry">
            <mxPoint x="70" y="270" as="sourcePoint" />
            <mxPoint x="130" y="240" as="targetPoint" />
          </mxGeometry>
        </mxCell>
        <mxCell id="5k28YJLgIWIQSBCrcyXX-3" value="" style="endArrow=classic;html=1;rounded=0;exitX=1;exitY=0.5;exitDx=0;exitDy=0;entryX=-0.003;entryY=0.403;entryDx=0;entryDy=0;entryPerimeter=0;" parent="1" source="RKl3Yg5YxASx0wYNZK-S-5" target="5k28YJLgIWIQSBCrcyXX-5" edge="1">
          <mxGeometry width="50" height="50" relative="1" as="geometry">
            <mxPoint x="320" y="230" as="sourcePoint" />
            <mxPoint x="320" y="250" as="targetPoint" />
          </mxGeometry>
        </mxCell>
        <mxCell id="5k28YJLgIWIQSBCrcyXX-4" value="" style="endArrow=classic;html=1;rounded=0;exitX=1;exitY=0.5;exitDx=0;exitDy=0;entryX=0;entryY=0.5;entryDx=0;entryDy=0;" parent="1" source="RKl3Yg5YxASx0wYNZK-S-7" target="5k28YJLgIWIQSBCrcyXX-5" edge="1">
          <mxGeometry width="50" height="50" relative="1" as="geometry">
            <mxPoint x="180" y="400" as="sourcePoint" />
            <mxPoint x="310" y="280" as="targetPoint" />
          </mxGeometry>
        </mxCell>
        <mxCell id="5k28YJLgIWIQSBCrcyXX-5" value="Đăng nhập" style="ellipse;whiteSpace=wrap;html=1;" parent="1" vertex="1">
          <mxGeometry x="290" y="210" width="120" height="80" as="geometry" />
        </mxCell>
        <mxCell id="5k28YJLgIWIQSBCrcyXX-9" value="extended" style="endArrow=open;endSize=12;dashed=1;html=1;rounded=0;exitX=0;exitY=1;exitDx=0;exitDy=0;" parent="1" source="5k28YJLgIWIQSBCrcyXX-10" edge="1">
          <mxGeometry width="160" relative="1" as="geometry">
            <mxPoint x="153" y="465" as="sourcePoint" />
            <mxPoint x="380" y="220" as="targetPoint" />
          </mxGeometry>
        </mxCell>
        <mxCell id="5k28YJLgIWIQSBCrcyXX-10" value="Đăng nhập ko thành công" style="ellipse;whiteSpace=wrap;html=1;" parent="1" vertex="1">
          <mxGeometry x="440" y="160" width="130" height="50" as="geometry" />
        </mxCell>
        <mxCell id="5k28YJLgIWIQSBCrcyXX-11" value="extended" style="endArrow=open;endSize=12;dashed=1;html=1;rounded=0;entryX=0.5;entryY=1;entryDx=0;entryDy=0;" parent="1" target="5k28YJLgIWIQSBCrcyXX-10" edge="1">
          <mxGeometry width="160" relative="1" as="geometry">
            <mxPoint x="570" y="240" as="sourcePoint" />
            <mxPoint x="590" y="247" as="targetPoint" />
          </mxGeometry>
        </mxCell>
        <mxCell id="5k28YJLgIWIQSBCrcyXX-12" value="Nhập sai mật khẩu" style="ellipse;whiteSpace=wrap;html=1;" parent="1" vertex="1">
          <mxGeometry x="560" y="235" width="120" height="30" as="geometry" />
        </mxCell>
        <mxCell id="5k28YJLgIWIQSBCrcyXX-13" value="Nhập sai số điên thoại" style="ellipse;whiteSpace=wrap;html=1;" parent="1" vertex="1">
          <mxGeometry x="550" y="90" width="120" height="30" as="geometry" />
        </mxCell>
        <mxCell id="5k28YJLgIWIQSBCrcyXX-15" value="extended" style="endArrow=open;endSize=12;dashed=1;html=1;rounded=0;entryX=0.582;entryY=-0.036;entryDx=0;entryDy=0;exitX=0.373;exitY=1.073;exitDx=0;exitDy=0;exitPerimeter=0;entryPerimeter=0;" parent="1" source="5k28YJLgIWIQSBCrcyXX-13" target="5k28YJLgIWIQSBCrcyXX-10" edge="1">
          <mxGeometry width="160" relative="1" as="geometry">
            <mxPoint x="580" y="250" as="sourcePoint" />
            <mxPoint x="515" y="220" as="targetPoint" />
          </mxGeometry>
        </mxCell>
        <mxCell id="5k28YJLgIWIQSBCrcyXX-16" value="Quên mật khẩu" style="ellipse;whiteSpace=wrap;html=1;" parent="1" vertex="1">
          <mxGeometry x="650" y="170" width="120" height="30" as="geometry" />
        </mxCell>
        <mxCell id="5k28YJLgIWIQSBCrcyXX-17" value="extended" style="endArrow=open;endSize=12;dashed=1;html=1;rounded=0;entryX=1;entryY=0.5;entryDx=0;entryDy=0;exitX=0;exitY=0.5;exitDx=0;exitDy=0;" parent="1" source="5k28YJLgIWIQSBCrcyXX-16" target="5k28YJLgIWIQSBCrcyXX-10" edge="1">
          <mxGeometry width="160" relative="1" as="geometry">
            <mxPoint x="605" y="132" as="sourcePoint" />
            <mxPoint x="526" y="168" as="targetPoint" />
          </mxGeometry>
        </mxCell>
        <mxCell id="5k28YJLgIWIQSBCrcyXX-19" value="include" style="endArrow=open;endSize=12;dashed=1;html=1;rounded=0;exitX=0;exitY=0.5;exitDx=0;exitDy=0;" parent="1" source="5k28YJLgIWIQSBCrcyXX-21" edge="1">
          <mxGeometry width="160" relative="1" as="geometry">
            <mxPoint x="770" y="130" as="sourcePoint" />
            <mxPoint x="710" y="204" as="targetPoint" />
          </mxGeometry>
        </mxCell>
        <mxCell id="5k28YJLgIWIQSBCrcyXX-21" value="Nhập số điện thoại" style="ellipse;whiteSpace=wrap;html=1;" parent="1" vertex="1">
          <mxGeometry x="750" y="235" width="120" height="30" as="geometry" />
        </mxCell>
        <mxCell id="5k28YJLgIWIQSBCrcyXX-22" value="extend" style="endArrow=open;endSize=12;dashed=1;html=1;rounded=0;exitX=0;exitY=0.5;exitDx=0;exitDy=0;" parent="1" source="5k28YJLgIWIQSBCrcyXX-24" edge="1">
          <mxGeometry width="160" relative="1" as="geometry">
            <mxPoint x="860" y="180" as="sourcePoint" />
            <mxPoint x="820" y="230" as="targetPoint" />
          </mxGeometry>
        </mxCell>
        <mxCell id="5k28YJLgIWIQSBCrcyXX-24" value="Đúng" style="ellipse;whiteSpace=wrap;html=1;" parent="1" vertex="1">
          <mxGeometry x="880" y="180" width="70" height="40" as="geometry" />
        </mxCell>
        <mxCell id="5k28YJLgIWIQSBCrcyXX-25" value="Sai" style="ellipse;whiteSpace=wrap;html=1;" parent="1" vertex="1">
          <mxGeometry x="870" y="290" width="70" height="40" as="geometry" />
        </mxCell>
        <mxCell id="5k28YJLgIWIQSBCrcyXX-26" value="extend" style="endArrow=open;endSize=12;dashed=1;html=1;rounded=0;entryX=0.64;entryY=0.911;entryDx=0;entryDy=0;entryPerimeter=0;exitX=0;exitY=0.5;exitDx=0;exitDy=0;" parent="1" source="5k28YJLgIWIQSBCrcyXX-25" target="5k28YJLgIWIQSBCrcyXX-21" edge="1">
          <mxGeometry width="160" relative="1" as="geometry">
            <mxPoint x="870" y="190" as="sourcePoint" />
            <mxPoint x="830" y="240" as="targetPoint" />
          </mxGeometry>
        </mxCell>
        <mxCell id="5k28YJLgIWIQSBCrcyXX-27" value="include" style="endArrow=open;endSize=12;dashed=1;html=1;rounded=0;entryX=0.5;entryY=1;entryDx=0;entryDy=0;" parent="1" target="5k28YJLgIWIQSBCrcyXX-33" edge="1">
          <mxGeometry width="160" relative="1" as="geometry">
            <mxPoint x="1080" y="260" as="sourcePoint" />
            <mxPoint x="1109.9999618565992" y="342.8751834381036" as="targetPoint" />
          </mxGeometry>
        </mxCell>
        <mxCell id="5k28YJLgIWIQSBCrcyXX-28" value="Nhập mật khẩu mới" style="ellipse;whiteSpace=wrap;html=1;" parent="1" vertex="1">
          <mxGeometry x="1000" y="265" width="120" height="30" as="geometry" />
        </mxCell>
        <mxCell id="5k28YJLgIWIQSBCrcyXX-29" value="include" style="endArrow=open;endSize=12;dashed=1;html=1;rounded=0;entryX=0.577;entryY=-0.033;entryDx=0;entryDy=0;entryPerimeter=0;" parent="1" edge="1">
          <mxGeometry width="160" relative="1" as="geometry">
            <mxPoint x="980" y="130" as="sourcePoint" />
            <mxPoint x="930" y="180" as="targetPoint" />
          </mxGeometry>
        </mxCell>
        <mxCell id="5k28YJLgIWIQSBCrcyXX-30" value="Nhập mã gửi về điện thoại" style="ellipse;whiteSpace=wrap;html=1;" parent="1" vertex="1">
          <mxGeometry x="980" y="90" width="120" height="60" as="geometry" />
        </mxCell>
        <mxCell id="5k28YJLgIWIQSBCrcyXX-33" value="Đúng" style="ellipse;whiteSpace=wrap;html=1;" parent="1" vertex="1">
          <mxGeometry x="1080" y="165" width="70" height="40" as="geometry" />
        </mxCell>
        <mxCell id="5k28YJLgIWIQSBCrcyXX-34" value="Sai" style="ellipse;whiteSpace=wrap;html=1;" parent="1" vertex="1">
          <mxGeometry x="1080" y="30" width="70" height="40" as="geometry" />
        </mxCell>
        <mxCell id="5k28YJLgIWIQSBCrcyXX-35" value="extend" style="endArrow=open;endSize=12;dashed=1;html=1;rounded=0;exitX=0;exitY=1;exitDx=0;exitDy=0;entryX=0.5;entryY=0;entryDx=0;entryDy=0;" parent="1" source="5k28YJLgIWIQSBCrcyXX-34" target="5k28YJLgIWIQSBCrcyXX-30" edge="1">
          <mxGeometry width="160" relative="1" as="geometry">
            <mxPoint x="890" y="210" as="sourcePoint" />
            <mxPoint x="830" y="240" as="targetPoint" />
          </mxGeometry>
        </mxCell>
        <mxCell id="5k28YJLgIWIQSBCrcyXX-36" value="extend" style="endArrow=open;endSize=12;dashed=1;html=1;rounded=0;entryX=0.5;entryY=1;entryDx=0;entryDy=0;exitX=0;exitY=0.5;exitDx=0;exitDy=0;" parent="1" source="5k28YJLgIWIQSBCrcyXX-33" target="5k28YJLgIWIQSBCrcyXX-30" edge="1">
          <mxGeometry width="160" relative="1" as="geometry">
            <mxPoint x="880" y="320" as="sourcePoint" />
            <mxPoint x="837" y="272" as="targetPoint" />
          </mxGeometry>
        </mxCell>
        <mxCell id="5k28YJLgIWIQSBCrcyXX-38" value="Cửa hàng" style="shape=umlActor;verticalLabelPosition=bottom;verticalAlign=top;html=1;outlineConnect=0;" parent="1" vertex="1">
          <mxGeometry x="30" y="130" width="30" height="60" as="geometry" />
        </mxCell>
        <mxCell id="5k28YJLgIWIQSBCrcyXX-40" value="" style="endArrow=classic;html=1;rounded=0;exitX=1;exitY=0.3333333333333333;exitDx=0;exitDy=0;exitPerimeter=0;entryX=0.333;entryY=-0.083;entryDx=0;entryDy=0;entryPerimeter=0;" parent="1" source="5k28YJLgIWIQSBCrcyXX-38" target="RKl3Yg5YxASx0wYNZK-S-5" edge="1">
          <mxGeometry width="50" height="50" relative="1" as="geometry">
            <mxPoint x="70" y="270" as="sourcePoint" />
            <mxPoint x="160" y="200" as="targetPoint" />
          </mxGeometry>
        </mxCell>
        <mxCell id="5k28YJLgIWIQSBCrcyXX-41" value="" style="endArrow=classic;html=1;rounded=0;exitX=1;exitY=0.3333333333333333;exitDx=0;exitDy=0;exitPerimeter=0;entryX=0;entryY=0;entryDx=0;entryDy=0;" parent="1" target="RKl3Yg5YxASx0wYNZK-S-7" edge="1" source="5k28YJLgIWIQSBCrcyXX-38">
          <mxGeometry width="50" height="50" relative="1" as="geometry">
            <mxPoint x="70" y="120" as="sourcePoint" />
            <mxPoint x="170" y="218" as="targetPoint" />
          </mxGeometry>
        </mxCell>
      </root>
    </mxGraphModel>
  </diagram>
</mxfile>
